<svg xmlns="http://www.w3.org/2000/svg" xmlns:xlink="http://www.w3.org/1999/xlink" width="180" zoomAndPan="magnify" viewBox="0 0 135 37.5" height="50" preserveAspectRatio="xMidYMid meet" version="1.0"><defs><g/><clipPath id="cc4637a4c0"><path d="M 0.886719 0 L 134.109375 0 L 134.109375 37.007812 L 0.886719 37.007812 Z M 0.886719 0 " clip-rule="nonzero"/></clipPath><clipPath id="fd8e0aed02"><path d="M 4.589844 13 L 27 13 L 27 33.304688 L 4.589844 33.304688 Z M 4.589844 13 " clip-rule="nonzero"/></clipPath><clipPath id="7e663b6723"><path d="M 26 3.699219 L 48.257812 3.699219 L 48.257812 24 L 26 24 Z M 26 3.699219 " clip-rule="nonzero"/></clipPath></defs><g clip-path="url(#cc4637a4c0)"><path fill="#ffffff" d="M 0.886719 0 L 134.113281 0 L 134.113281 37.007812 L 0.886719 37.007812 Z M 0.886719 0 " fill-opacity="1" fill-rule="nonzero"/><path fill="#0f1120" d="M 0.886719 0 L 134.113281 0 L 134.113281 37.007812 L 0.886719 37.007812 Z M 0.886719 0 " fill-opacity="1" fill-rule="nonzero"/></g><g clip-path="url(#fd8e0aed02)"><path fill="#0652e9" d="M 19.410156 27.632812 L 19.410156 30.3125 L 7.277344 24.675781 L 7.277344 22.5 L 19.410156 16.863281 L 19.410156 19.542969 L 10.234375 23.5625 L 10.234375 23.613281 Z M 26.613281 13.886719 L 6.324219 13.886719 C 5.367188 13.886719 4.589844 14.664062 4.589844 15.621094 L 4.589844 31.554688 C 4.589844 32.511719 5.367188 33.289062 6.324219 33.289062 L 20.984375 33.289062 L 26.613281 13.886719 " fill-opacity="1" fill-rule="nonzero"/></g><g clip-path="url(#7e663b6723)"><path fill="#62e1e9" d="M 45.921875 14.578125 L 33.789062 20.136719 L 33.789062 17.457031 L 43.164062 13.4375 L 43.164062 13.386719 L 33.789062 9.367188 L 33.789062 6.691406 L 45.921875 12.25 Z M 32.246094 3.714844 L 26.613281 23.113281 L 46.871094 23.113281 C 47.828125 23.113281 48.605469 22.335938 48.605469 21.378906 L 48.605469 5.449219 C 48.605469 4.488281 47.828125 3.714844 46.871094 3.714844 L 32.246094 3.714844 " fill-opacity="1" fill-rule="nonzero"/></g><g fill="#ffffff" fill-opacity="1"><g transform="translate(53.301869, 20.48227)"><g><path d="M 3.414062 0.078125 C 4.589844 0.078125 5.609375 -0.582031 6.113281 -1.554688 L 4.988281 -2.136719 C 4.699219 -1.574219 4.117188 -1.199219 3.414062 -1.199219 C 2.414062 -1.199219 1.652344 -1.96875 1.652344 -2.96875 C 1.652344 -3.96875 2.414062 -4.738281 3.414062 -4.738281 C 4.117188 -4.738281 4.699219 -4.363281 4.988281 -3.800781 L 6.113281 -4.382812 C 5.609375 -5.351562 4.589844 -6.015625 3.414062 -6.015625 C 1.730469 -6.015625 0.367188 -4.652344 0.367188 -2.96875 C 0.367188 -1.285156 1.730469 0.078125 3.414062 0.078125 Z M 3.414062 0.078125 "/></g></g></g><g fill="#ffffff" fill-opacity="1"><g transform="translate(60.02253, 20.48227)"><g><path d="M 3.679688 -2.445312 C 4.382812 -2.652344 4.878906 -3.304688 4.878906 -4.117188 C 4.878906 -5.125 4.125 -5.9375 3.105469 -5.9375 L 0.582031 -5.9375 L 0.582031 0 L 1.890625 0 L 1.890625 -2.296875 L 2.414062 -2.296875 L 3.878906 0 L 5.34375 0 Z M 2.910156 -3.375 L 1.890625 -3.375 L 1.890625 -4.777344 L 2.910156 -4.777344 C 3.324219 -4.777344 3.632812 -4.480469 3.632812 -4.078125 C 3.632812 -3.660156 3.324219 -3.375 2.910156 -3.375 Z M 2.910156 -3.375 "/></g></g></g><g fill="#ffffff" fill-opacity="1"><g transform="translate(65.66464, 20.48227)"><g><path d="M 4.214844 0 L 5.609375 0 L 3.472656 -5.9375 L 2.007812 -5.9375 L -0.128906 0 L 1.265625 0 L 1.632812 -1.117188 L 3.847656 -1.117188 Z M 1.980469 -2.207031 L 2.742188 -4.5625 L 3.503906 -2.207031 Z M 1.980469 -2.207031 "/></g></g></g><g fill="#ffffff" fill-opacity="1"><g transform="translate(71.494755, 20.48227)"><g><path d="M 6.898438 -5.9375 L 5.839844 -1.820312 L 4.699219 -5.9375 L 3.433594 -5.9375 L 2.304688 -1.800781 L 1.238281 -5.9375 L -0.136719 -5.9375 L 1.484375 0 L 2.988281 0 L 4.066406 -4.175781 L 5.144531 0 L 6.648438 0 L 8.273438 -5.9375 Z M 6.898438 -5.9375 "/></g></g></g><g fill="#ffffff" fill-opacity="1"><g transform="translate(79.976728, 20.48227)"><g><path d="M 1.890625 -1.15625 L 1.890625 -5.9375 L 0.582031 -5.9375 L 0.582031 0 L 3.859375 0 L 3.859375 -1.15625 Z M 1.890625 -1.15625 "/></g></g></g><g fill="#ffffff" fill-opacity="1"><g transform="translate(84.203853, 20.48227)"><g><path d="M 0.632812 0 L 1.9375 0 L 1.9375 -5.9375 L 0.632812 -5.9375 Z M 0.632812 0 "/></g></g></g><g fill="#ffffff" fill-opacity="1"><g transform="translate(87.11495, 20.48227)"><g><path d="M 4.847656 -5.9375 L 4.847656 -2.007812 L 1.929688 -5.9375 L 0.582031 -5.9375 L 0.582031 0 L 1.890625 0 L 1.890625 -3.9375 L 4.800781 0 L 6.144531 0 L 6.144531 -5.9375 Z M 4.847656 -5.9375 "/></g></g></g><g fill="#ffffff" fill-opacity="1"><g transform="translate(94.201728, 20.48227)"><g><path d="M 3.414062 -3.253906 L 3.414062 -2.234375 L 5.046875 -2.234375 C 4.769531 -1.613281 4.15625 -1.199219 3.421875 -1.199219 C 2.425781 -1.199219 1.652344 -1.96875 1.652344 -2.96875 C 1.652344 -3.96875 2.425781 -4.738281 3.421875 -4.738281 C 4.125 -4.738281 4.699219 -4.363281 4.996094 -3.800781 L 6.125 -4.382812 C 5.609375 -5.351562 4.589844 -6.015625 3.421875 -6.015625 C 1.730469 -6.015625 0.375 -4.652344 0.375 -2.96875 C 0.375 -1.285156 1.730469 0.078125 3.421875 0.078125 C 5.105469 0.078125 6.472656 -1.285156 6.472656 -2.96875 L 6.472656 -3.253906 Z M 3.414062 -3.253906 "/></g></g></g><g fill="#ffffff" fill-opacity="1"><g transform="translate(101.397345, 20.48227)"><g/></g></g><g fill="#ffffff" fill-opacity="1"><g transform="translate(104.120436, 20.48227)"><g><path d="M 4.15625 -3.007812 C 4.601562 -3.246094 4.886719 -3.660156 4.886719 -4.285156 C 4.886719 -5.332031 4.097656 -5.9375 3.097656 -5.9375 L 0.582031 -5.9375 L 0.582031 0 L 3.324219 0 C 4.3125 0 5.085938 -0.574219 5.085938 -1.621094 C 5.085938 -2.34375 4.710938 -2.789062 4.15625 -3.007812 Z M 3.582031 -4.144531 C 3.582031 -3.800781 3.296875 -3.503906 2.9375 -3.503906 L 1.890625 -3.503906 L 1.890625 -4.777344 L 2.9375 -4.777344 C 3.296875 -4.777344 3.582031 -4.503906 3.582031 -4.144531 Z M 3.136719 -1.15625 L 1.890625 -1.15625 L 1.890625 -2.433594 L 3.136719 -2.433594 C 3.503906 -2.433594 3.78125 -2.136719 3.78125 -1.789062 C 3.78125 -1.433594 3.503906 -1.15625 3.136719 -1.15625 Z M 3.136719 -1.15625 "/></g></g></g><g fill="#ffffff" fill-opacity="1"><g transform="translate(109.841702, 20.48227)"><g><path d="M 5.332031 -5.9375 L 3.878906 -5.9375 L 2.613281 -3.929688 L 1.347656 -5.9375 L -0.128906 -5.9375 L 1.960938 -2.789062 L 1.960938 0 L 3.265625 0 L 3.265625 -2.800781 Z M 5.332031 -5.9375 "/></g></g></g><g fill="#ffffff" fill-opacity="1"><g transform="translate(115.404656, 20.48227)"><g><path d="M 4.246094 -5.9375 L -0.0507812 -5.9375 L -0.0507812 -4.777344 L 1.453125 -4.777344 L 1.453125 0 L 2.75 0 L 2.75 -4.777344 L 4.246094 -4.777344 Z M 4.246094 -5.9375 "/></g></g></g><g fill="#ffffff" fill-opacity="1"><g transform="translate(119.948426, 20.48227)"><g><path d="M 4.207031 -4.789062 L 4.207031 -5.9375 L 0.632812 -5.9375 L 0.632812 0 L 4.207031 0 L 4.207031 -1.148438 L 1.9375 -1.148438 L 1.9375 -2.394531 L 3.878906 -2.394531 L 3.878906 -3.542969 L 1.9375 -3.542969 L 1.9375 -4.789062 Z M 4.207031 -4.789062 "/></g></g></g><g fill="#ffffff" fill-opacity="1"><g transform="translate(124.907785, 20.48227)"><g><path d="M 2.414062 0.078125 C 3.523438 0.078125 4.460938 -0.574219 4.460938 -1.683594 C 4.460938 -3.878906 1.730469 -3.335938 1.730469 -4.363281 C 1.730469 -4.699219 1.988281 -4.859375 2.304688 -4.859375 C 2.640625 -4.859375 2.976562 -4.671875 3.273438 -4.34375 L 4.144531 -5.175781 C 3.710938 -5.679688 3.046875 -6.015625 2.316406 -6.015625 C 1.375 -6.015625 0.414062 -5.453125 0.414062 -4.265625 C 0.414062 -2.246094 3.15625 -2.730469 3.15625 -1.691406 C 3.15625 -1.367188 2.878906 -1.148438 2.425781 -1.148438 C 1.878906 -1.148438 1.453125 -1.453125 1.238281 -1.917969 L 0.160156 -1.246094 C 0.542969 -0.503906 1.375 0.078125 2.414062 0.078125 Z M 2.414062 0.078125 "/></g></g></g></svg>