<svg xmlns="http://www.w3.org/2000/svg" xmlns:xlink="http://www.w3.org/1999/xlink" width="180" zoomAndPan="magnify" viewBox="0 0 135 37.5" height="50" preserveAspectRatio="xMidYMid meet" version="1.0"><defs><g/><clipPath id="de075c499c"><path d="M 0.886719 0 L 134.109375 0 L 134.109375 37.007812 L 0.886719 37.007812 Z M 0.886719 0 " clip-rule="nonzero"/></clipPath><clipPath id="51c9a2ddfb"><path d="M 4.589844 13 L 27 13 L 27 33.304688 L 4.589844 33.304688 Z M 4.589844 13 " clip-rule="nonzero"/></clipPath><clipPath id="73b6034a63"><path d="M 26 3.699219 L 48.257812 3.699219 L 48.257812 24 L 26 24 Z M 26 3.699219 " clip-rule="nonzero"/></clipPath></defs><g clip-path="url(#de075c499c)"><path fill="#ffffff" d="M 0.886719 0 L 134.113281 0 L 134.113281 37.007812 L 0.886719 37.007812 Z M 0.886719 0 " fill-opacity="1" fill-rule="nonzero"/><path fill="#f3f5f9" d="M 0.886719 0 L 134.113281 0 L 134.113281 37.007812 L 0.886719 37.007812 Z M 0.886719 0 " fill-opacity="1" fill-rule="nonzero"/></g><g clip-path="url(#51c9a2ddfb)"><path fill="#0652e9" d="M 19.410156 27.632812 L 19.410156 30.3125 L 7.277344 24.675781 L 7.277344 22.5 L 19.410156 16.863281 L 19.410156 19.542969 L 10.234375 23.5625 L 10.234375 23.613281 Z M 26.613281 13.886719 L 6.324219 13.886719 C 5.367188 13.886719 4.589844 14.664062 4.589844 15.621094 L 4.589844 31.554688 C 4.589844 32.511719 5.367188 33.289062 6.324219 33.289062 L 20.984375 33.289062 L 26.613281 13.886719 " fill-opacity="1" fill-rule="nonzero"/></g><g clip-path="url(#73b6034a63)"><path fill="#38b6ff" d="M 45.921875 14.578125 L 33.789062 20.136719 L 33.789062 17.457031 L 43.164062 13.4375 L 43.164062 13.386719 L 33.789062 9.367188 L 33.789062 6.691406 L 45.921875 12.25 Z M 32.246094 3.714844 L 26.613281 23.113281 L 46.871094 23.113281 C 47.828125 23.113281 48.605469 22.335938 48.605469 21.378906 L 48.605469 5.449219 C 48.605469 4.488281 47.828125 3.714844 46.871094 3.714844 L 32.246094 3.714844 " fill-opacity="1" fill-rule="nonzero"/></g><g fill="#000000" fill-opacity="1"><g transform="translate(53.935646, 16.863049)"><g><path d="M 3.40625 0.078125 C 4.578125 0.078125 5.59375 -0.582031 6.097656 -1.550781 L 4.972656 -2.132812 C 4.6875 -1.570312 4.105469 -1.195312 3.40625 -1.195312 C 2.40625 -1.195312 1.648438 -1.964844 1.648438 -2.960938 C 1.648438 -3.957031 2.40625 -4.726562 3.40625 -4.726562 C 4.105469 -4.726562 4.6875 -4.351562 4.972656 -3.789062 L 6.097656 -4.371094 C 5.59375 -5.339844 4.578125 -6 3.40625 -6 C 1.726562 -6 0.363281 -4.636719 0.363281 -2.960938 C 0.363281 -1.28125 1.726562 0.078125 3.40625 0.078125 Z M 3.40625 0.078125 "/></g></g></g><g fill="#000000" fill-opacity="1"><g transform="translate(60.63832, 16.863049)"><g><path d="M 3.671875 -2.4375 C 4.371094 -2.644531 4.863281 -3.296875 4.863281 -4.105469 C 4.863281 -5.113281 4.113281 -5.921875 3.097656 -5.921875 L 0.582031 -5.921875 L 0.582031 0 L 1.886719 0 L 1.886719 -2.289062 L 2.40625 -2.289062 L 3.867188 0 L 5.328125 0 Z M 2.902344 -3.363281 L 1.886719 -3.363281 L 1.886719 -4.765625 L 2.902344 -4.765625 C 3.316406 -4.765625 3.621094 -4.46875 3.621094 -4.066406 C 3.621094 -3.652344 3.316406 -3.363281 2.902344 -3.363281 Z M 2.902344 -3.363281 "/></g></g></g><g fill="#000000" fill-opacity="1"><g transform="translate(66.26533, 16.863049)"><g><path d="M 4.203125 0 L 5.59375 0 L 3.464844 -5.921875 L 2.003906 -5.921875 L -0.128906 0 L 1.261719 0 L 1.628906 -1.113281 L 3.839844 -1.113281 Z M 1.972656 -2.199219 L 2.734375 -4.550781 L 3.492188 -2.199219 Z M 1.972656 -2.199219 "/></g></g></g><g fill="#000000" fill-opacity="1"><g transform="translate(72.079842, 16.863049)"><g><path d="M 6.878906 -5.921875 L 5.824219 -1.816406 L 4.6875 -5.921875 L 3.425781 -5.921875 L 2.300781 -1.796875 L 1.234375 -5.921875 L -0.136719 -5.921875 L 1.480469 0 L 2.980469 0 L 4.054688 -4.164062 L 5.132812 0 L 6.632812 0 L 8.25 -5.921875 Z M 6.878906 -5.921875 "/></g></g></g><g fill="#000000" fill-opacity="1"><g transform="translate(80.539114, 16.863049)"><g><path d="M 1.886719 -1.15625 L 1.886719 -5.921875 L 0.582031 -5.921875 L 0.582031 0 L 3.847656 0 L 3.847656 -1.15625 Z M 1.886719 -1.15625 "/></g></g></g><g fill="#000000" fill-opacity="1"><g transform="translate(84.754927, 16.863049)"><g><path d="M 0.632812 0 L 1.933594 0 L 1.933594 -5.921875 L 0.632812 -5.921875 Z M 0.632812 0 "/></g></g></g><g fill="#000000" fill-opacity="1"><g transform="translate(87.658233, 16.863049)"><g><path d="M 4.835938 -5.921875 L 4.835938 -2.003906 L 1.925781 -5.921875 L 0.582031 -5.921875 L 0.582031 0 L 1.886719 0 L 1.886719 -3.925781 L 4.785156 0 L 6.128906 0 L 6.128906 -5.921875 Z M 4.835938 -5.921875 "/></g></g></g><g fill="#000000" fill-opacity="1"><g transform="translate(94.726043, 16.863049)"><g><path d="M 3.40625 -3.246094 L 3.40625 -2.230469 L 5.03125 -2.230469 C 4.757812 -1.609375 4.144531 -1.195312 3.414062 -1.195312 C 2.417969 -1.195312 1.648438 -1.964844 1.648438 -2.960938 C 1.648438 -3.957031 2.417969 -4.726562 3.414062 -4.726562 C 4.113281 -4.726562 4.6875 -4.351562 4.984375 -3.789062 L 6.109375 -4.371094 C 5.59375 -5.339844 4.578125 -6 3.414062 -6 C 1.726562 -6 0.375 -4.636719 0.375 -2.960938 C 0.375 -1.28125 1.726562 0.078125 3.414062 0.078125 C 5.09375 0.078125 6.453125 -1.28125 6.453125 -2.960938 L 6.453125 -3.246094 Z M 3.40625 -3.246094 "/></g></g></g><g fill="#000000" fill-opacity="1"><g transform="translate(101.902403, 16.863049)"><g/></g></g><g fill="#000000" fill-opacity="1"><g transform="translate(104.618206, 16.863049)"><g><path d="M 4.144531 -3 C 4.589844 -3.238281 4.875 -3.652344 4.875 -4.273438 C 4.875 -5.320312 4.085938 -5.921875 3.089844 -5.921875 L 0.582031 -5.921875 L 0.582031 0 L 3.316406 0 C 4.300781 0 5.074219 -0.574219 5.074219 -1.617188 C 5.074219 -2.339844 4.699219 -2.78125 4.144531 -3 Z M 3.574219 -4.136719 C 3.574219 -3.789062 3.285156 -3.492188 2.929688 -3.492188 L 1.886719 -3.492188 L 1.886719 -4.765625 L 2.929688 -4.765625 C 3.285156 -4.765625 3.574219 -4.488281 3.574219 -4.136719 Z M 3.128906 -1.15625 L 1.886719 -1.15625 L 1.886719 -2.425781 L 3.128906 -2.425781 C 3.492188 -2.425781 3.769531 -2.132812 3.769531 -1.785156 C 3.769531 -1.429688 3.492188 -1.15625 3.128906 -1.15625 Z M 3.128906 -1.15625 "/></g></g></g><g fill="#000000" fill-opacity="1"><g transform="translate(110.32416, 16.863049)"><g><path d="M 5.320312 -5.921875 L 3.867188 -5.921875 L 2.605469 -3.917969 L 1.34375 -5.921875 L -0.128906 -5.921875 L 1.953125 -2.78125 L 1.953125 0 L 3.257812 0 L 3.257812 -2.792969 Z M 5.320312 -5.921875 "/></g></g></g><g fill="#000000" fill-opacity="1"><g transform="translate(115.872226, 16.863049)"><g><path d="M 4.234375 -5.921875 L -0.0507812 -5.921875 L -0.0507812 -4.765625 L 1.449219 -4.765625 L 1.449219 0 L 2.742188 0 L 2.742188 -4.765625 L 4.234375 -4.765625 Z M 4.234375 -5.921875 "/></g></g></g><g fill="#000000" fill-opacity="1"><g transform="translate(120.403835, 16.863049)"><g><path d="M 4.195312 -4.777344 L 4.195312 -5.921875 L 0.632812 -5.921875 L 0.632812 0 L 4.195312 0 L 4.195312 -1.144531 L 1.933594 -1.144531 L 1.933594 -2.386719 L 3.867188 -2.386719 L 3.867188 -3.53125 L 1.933594 -3.53125 L 1.933594 -4.777344 Z M 4.195312 -4.777344 "/></g></g></g><g fill="#000000" fill-opacity="1"><g transform="translate(125.349921, 16.863049)"><g><path d="M 2.40625 0.078125 C 3.511719 0.078125 4.449219 -0.574219 4.449219 -1.675781 C 4.449219 -3.867188 1.726562 -3.324219 1.726562 -4.351562 C 1.726562 -4.6875 1.984375 -4.84375 2.300781 -4.84375 C 2.636719 -4.84375 2.96875 -4.65625 3.265625 -4.332031 L 4.136719 -5.160156 C 3.699219 -5.664062 3.039062 -6 2.308594 -6 C 1.371094 -6 0.414062 -5.4375 0.414062 -4.253906 C 0.414062 -2.238281 3.148438 -2.722656 3.148438 -1.6875 C 3.148438 -1.363281 2.871094 -1.144531 2.417969 -1.144531 C 1.875 -1.144531 1.449219 -1.449219 1.234375 -1.914062 L 0.15625 -1.242188 C 0.542969 -0.503906 1.371094 0.078125 2.40625 0.078125 Z M 2.40625 0.078125 "/></g></g></g><g fill="#000000" fill-opacity="1"><g transform="translate(76.019203, 22.393969)"><g><path d="M 1.289062 -1.710938 L 1.289062 -1.90625 L 0.246094 -1.90625 L 0.246094 0 L 0.453125 0 L 0.453125 -0.855469 L 1.183594 -0.855469 L 1.183594 -1.050781 L 0.453125 -1.050781 L 0.453125 -1.710938 Z M 1.289062 -1.710938 "/></g></g></g><g fill="#000000" fill-opacity="1"><g transform="translate(78.219429, 22.393969)"><g><path d="M 0.9375 0.0273438 C 1.355469 0.0273438 1.65625 -0.25 1.65625 -0.625 L 1.65625 -1.90625 L 1.453125 -1.90625 L 1.453125 -0.65625 C 1.453125 -0.382812 1.234375 -0.179688 0.9375 -0.179688 C 0.640625 -0.179688 0.425781 -0.382812 0.425781 -0.65625 L 0.425781 -1.90625 L 0.222656 -1.90625 L 0.222656 -0.625 C 0.222656 -0.25 0.523438 0.0273438 0.9375 0.0273438 Z M 0.9375 0.0273438 "/></g></g></g><g fill="#000000" fill-opacity="1"><g transform="translate(80.95063, 22.393969)"><g><path d="M 0.4375 -0.203125 L 0.4375 -1.90625 L 0.230469 -1.90625 L 0.230469 0 L 1.144531 0 L 1.144531 -0.203125 Z M 0.4375 -0.203125 "/></g></g></g><g fill="#000000" fill-opacity="1"><g transform="translate(82.975983, 22.393969)"><g><path d="M 0.4375 -0.203125 L 0.4375 -1.90625 L 0.230469 -1.90625 L 0.230469 0 L 1.144531 0 L 1.144531 -0.203125 Z M 0.4375 -0.203125 "/></g></g></g><g fill="#000000" fill-opacity="1"><g transform="translate(86.619713, 22.393969)"><g><path d="M 0.710938 0.0273438 C 1.035156 0.0273438 1.300781 -0.167969 1.300781 -0.503906 C 1.300781 -1.152344 0.371094 -0.992188 0.371094 -1.445312 C 0.371094 -1.636719 0.527344 -1.730469 0.707031 -1.730469 C 0.851562 -1.730469 0.972656 -1.667969 1.050781 -1.5625 L 1.207031 -1.695312 C 1.101562 -1.828125 0.917969 -1.933594 0.699219 -1.933594 C 0.40625 -1.933594 0.167969 -1.742188 0.167969 -1.429688 C 0.167969 -0.816406 1.097656 -0.96875 1.097656 -0.496094 C 1.097656 -0.292969 0.929688 -0.179688 0.714844 -0.179688 C 0.5 -0.179688 0.34375 -0.296875 0.277344 -0.46875 L 0.09375 -0.363281 C 0.191406 -0.128906 0.429688 0.0273438 0.710938 0.0273438 Z M 0.710938 0.0273438 "/></g></g></g><g fill="#000000" fill-opacity="1"><g transform="translate(88.864452, 22.393969)"><g><path d="M 1.289062 -1.90625 L 0.0273438 -1.90625 L 0.0273438 -1.703125 L 0.554688 -1.703125 L 0.554688 0 L 0.761719 0 L 0.761719 -1.703125 L 1.289062 -1.703125 Z M 1.289062 -1.90625 "/></g></g></g><g fill="#000000" fill-opacity="1"><g transform="translate(91.032883, 22.393969)"><g><path d="M 1.382812 0 L 1.605469 0 L 0.914062 -1.90625 L 0.691406 -1.90625 L 0 0 L 0.222656 0 L 0.378906 -0.445312 L 1.226562 -0.445312 Z M 0.445312 -0.640625 L 0.804688 -1.667969 L 1.160156 -0.640625 Z M 0.445312 -0.640625 "/></g></g></g><g fill="#000000" fill-opacity="1"><g transform="translate(93.490648, 22.393969)"><g><path d="M 1.136719 0.0273438 C 1.5 0.0273438 1.820312 -0.175781 1.988281 -0.46875 L 1.8125 -0.570312 C 1.683594 -0.332031 1.425781 -0.179688 1.136719 -0.179688 C 0.707031 -0.179688 0.359375 -0.519531 0.359375 -0.953125 C 0.359375 -1.386719 0.707031 -1.730469 1.136719 -1.730469 C 1.425781 -1.730469 1.683594 -1.574219 1.8125 -1.339844 L 1.988281 -1.4375 C 1.820312 -1.734375 1.5 -1.933594 1.136719 -1.933594 C 0.59375 -1.933594 0.15625 -1.496094 0.15625 -0.953125 C 0.15625 -0.414062 0.59375 0.0273438 1.136719 0.0273438 Z M 1.136719 0.0273438 "/></g></g></g><g fill="#000000" fill-opacity="1"><g transform="translate(96.434875, 22.393969)"><g><path d="M 1.371094 0 L 1.652344 0 L 0.746094 -1.027344 L 1.617188 -1.90625 L 1.335938 -1.90625 L 0.570312 -1.125 L 0.4375 -1.125 L 0.4375 -1.90625 L 0.230469 -1.90625 L 0.230469 0 L 0.4375 0 L 0.4375 -0.933594 L 0.574219 -0.933594 Z M 1.371094 0 "/></g></g></g><g fill="#000000" fill-opacity="1"><g transform="translate(98.918075, 22.393969)"><g/></g></g><g fill="#000000" fill-opacity="1"><g transform="translate(100.536451, 22.393969)"><g><path d="M 2.382812 -1.90625 L 1.890625 -0.339844 L 1.425781 -1.90625 L 1.140625 -1.90625 L 0.683594 -0.34375 L 0.195312 -1.90625 L -0.0195312 -1.90625 L 0.578125 0 L 0.792969 0 L 1.285156 -1.691406 L 1.785156 0 L 1.996094 0 L 2.589844 -1.90625 Z M 2.382812 -1.90625 "/></g></g></g><g fill="#000000" fill-opacity="1"><g transform="translate(103.960779, 22.393969)"><g><path d="M 1.289062 -1.710938 L 1.289062 -1.90625 L 0.246094 -1.90625 L 0.246094 0 L 1.289062 0 L 1.289062 -0.195312 L 0.453125 -0.195312 L 0.453125 -0.855469 L 1.183594 -0.855469 L 1.183594 -1.050781 L 0.453125 -1.050781 L 0.453125 -1.710938 Z M 1.289062 -1.710938 "/></g></g></g><g fill="#000000" fill-opacity="1"><g transform="translate(106.294542, 22.393969)"><g><path d="M 1.171875 -0.964844 C 1.339844 -1.042969 1.453125 -1.195312 1.453125 -1.398438 C 1.453125 -1.699219 1.21875 -1.90625 0.925781 -1.90625 L 0.230469 -1.90625 L 0.230469 0 L 0.992188 0 C 1.28125 0 1.511719 -0.207031 1.511719 -0.503906 C 1.511719 -0.734375 1.375 -0.898438 1.171875 -0.964844 Z M 1.25 -1.382812 C 1.25 -1.195312 1.09375 -1.050781 0.902344 -1.050781 L 0.433594 -1.050781 L 0.433594 -1.703125 L 0.902344 -1.703125 C 1.09375 -1.703125 1.25 -1.570312 1.25 -1.382812 Z M 0.964844 -0.203125 L 0.433594 -0.203125 L 0.433594 -0.855469 L 0.964844 -0.855469 C 1.152344 -0.855469 1.308594 -0.710938 1.308594 -0.523438 C 1.308594 -0.335938 1.152344 -0.203125 0.964844 -0.203125 Z M 0.964844 -0.203125 "/></g></g></g><g fill="#000000" fill-opacity="1"><g transform="translate(69.553402, 25.891413)"><g><path d="M 0.230469 0 L 0.753906 0 C 1.277344 0 1.707031 -0.425781 1.707031 -0.953125 C 1.707031 -1.480469 1.277344 -1.90625 0.753906 -1.90625 L 0.230469 -1.90625 Z M 0.433594 -0.203125 L 0.433594 -1.703125 L 0.75 -1.703125 C 1.171875 -1.703125 1.503906 -1.382812 1.503906 -0.953125 C 1.503906 -0.523438 1.171875 -0.203125 0.75 -0.203125 Z M 0.433594 -0.203125 "/></g></g></g><g fill="#000000" fill-opacity="1"><g transform="translate(72.268704, 25.891413)"><g><path d="M 1.289062 -1.710938 L 1.289062 -1.90625 L 0.246094 -1.90625 L 0.246094 0 L 1.289062 0 L 1.289062 -0.195312 L 0.453125 -0.195312 L 0.453125 -0.855469 L 1.183594 -0.855469 L 1.183594 -1.050781 L 0.453125 -1.050781 L 0.453125 -1.710938 Z M 1.289062 -1.710938 "/></g></g></g><g fill="#000000" fill-opacity="1"><g transform="translate(74.602468, 25.891413)"><g><path d="M 1.382812 -1.90625 L 0.804688 -0.261719 L 0.226562 -1.90625 L 0 -1.90625 L 0.691406 0 L 0.914062 0 L 1.605469 -1.90625 Z M 1.382812 -1.90625 "/></g></g></g><g fill="#000000" fill-opacity="1"><g transform="translate(77.060233, 25.891413)"><g><path d="M 1.289062 -1.710938 L 1.289062 -1.90625 L 0.246094 -1.90625 L 0.246094 0 L 1.289062 0 L 1.289062 -0.195312 L 0.453125 -0.195312 L 0.453125 -0.855469 L 1.183594 -0.855469 L 1.183594 -1.050781 L 0.453125 -1.050781 L 0.453125 -1.710938 Z M 1.289062 -1.710938 "/></g></g></g><g fill="#000000" fill-opacity="1"><g transform="translate(79.393997, 25.891413)"><g><path d="M 0.4375 -0.203125 L 0.4375 -1.90625 L 0.230469 -1.90625 L 0.230469 0 L 1.144531 0 L 1.144531 -0.203125 Z M 0.4375 -0.203125 "/></g></g></g><g fill="#000000" fill-opacity="1"><g transform="translate(81.419349, 25.891413)"><g><path d="M 1.136719 0.0273438 C 1.679688 0.0273438 2.113281 -0.414062 2.113281 -0.953125 C 2.113281 -1.496094 1.679688 -1.933594 1.136719 -1.933594 C 0.59375 -1.933594 0.15625 -1.496094 0.15625 -0.953125 C 0.15625 -0.414062 0.59375 0.0273438 1.136719 0.0273438 Z M 1.136719 -0.179688 C 0.707031 -0.179688 0.359375 -0.519531 0.359375 -0.953125 C 0.359375 -1.386719 0.707031 -1.730469 1.136719 -1.730469 C 1.566406 -1.730469 1.910156 -1.386719 1.910156 -0.953125 C 1.910156 -0.519531 1.566406 -0.179688 1.136719 -0.179688 Z M 1.136719 -0.179688 "/></g></g></g><g fill="#000000" fill-opacity="1"><g transform="translate(84.544807, 25.891413)"><g><path d="M 0.914062 -1.90625 L 0.230469 -1.90625 L 0.230469 0 L 0.4375 0 L 0.4375 -0.847656 L 0.914062 -0.847656 C 1.210938 -0.847656 1.445312 -1.082031 1.445312 -1.375 C 1.445312 -1.667969 1.210938 -1.90625 0.914062 -1.90625 Z M 0.898438 -1.042969 L 0.4375 -1.042969 L 0.4375 -1.710938 L 0.898438 -1.710938 C 1.085938 -1.710938 1.242188 -1.578125 1.242188 -1.375 C 1.242188 -1.164062 1.085938 -1.042969 0.898438 -1.042969 Z M 0.898438 -1.042969 "/></g></g></g><g fill="#000000" fill-opacity="1"><g transform="translate(86.897647, 25.891413)"><g><path d="M 1.914062 -1.90625 L 1.179688 -0.246094 L 0.449219 -1.90625 L 0.230469 -1.90625 L 0.230469 0 L 0.4375 0 L 0.4375 -1.507812 L 1.09375 0 L 1.261719 0 L 1.925781 -1.5 L 1.925781 0 L 2.128906 0 L 2.128906 -1.90625 Z M 1.914062 -1.90625 "/></g></g></g><g fill="#000000" fill-opacity="1"><g transform="translate(90.108951, 25.891413)"><g><path d="M 1.289062 -1.710938 L 1.289062 -1.90625 L 0.246094 -1.90625 L 0.246094 0 L 1.289062 0 L 1.289062 -0.195312 L 0.453125 -0.195312 L 0.453125 -0.855469 L 1.183594 -0.855469 L 1.183594 -1.050781 L 0.453125 -1.050781 L 0.453125 -1.710938 Z M 1.289062 -1.710938 "/></g></g></g><g fill="#000000" fill-opacity="1"><g transform="translate(92.442716, 25.891413)"><g><path d="M 1.601562 -1.90625 L 1.601562 -0.339844 L 0.421875 -1.90625 L 0.230469 -1.90625 L 0.230469 0 L 0.4375 0 L 0.4375 -1.566406 L 1.613281 0 L 1.804688 0 L 1.804688 -1.90625 Z M 1.601562 -1.90625 "/></g></g></g><g fill="#000000" fill-opacity="1"><g transform="translate(95.329713, 25.891413)"><g><path d="M 1.289062 -1.90625 L 0.0273438 -1.90625 L 0.0273438 -1.703125 L 0.554688 -1.703125 L 0.554688 0 L 0.761719 0 L 0.761719 -1.703125 L 1.289062 -1.703125 Z M 1.289062 -1.90625 "/></g></g></g><g fill="#000000" fill-opacity="1"><g transform="translate(97.498145, 25.891413)"><g/></g></g><g fill="#000000" fill-opacity="1"><g transform="translate(99.116522, 25.891413)"><g><path d="M 1.382812 0 L 1.605469 0 L 0.914062 -1.90625 L 0.691406 -1.90625 L 0 0 L 0.222656 0 L 0.378906 -0.445312 L 1.226562 -0.445312 Z M 0.445312 -0.640625 L 0.804688 -1.667969 L 1.160156 -0.640625 Z M 0.445312 -0.640625 "/></g></g></g><g fill="#000000" fill-opacity="1"><g transform="translate(101.574285, 25.891413)"><g><path d="M 1.140625 -1.011719 L 1.140625 -0.820312 L 1.90625 -0.820312 C 1.847656 -0.453125 1.53125 -0.179688 1.144531 -0.179688 C 0.714844 -0.179688 0.367188 -0.519531 0.367188 -0.953125 C 0.367188 -1.386719 0.714844 -1.730469 1.144531 -1.730469 C 1.433594 -1.730469 1.6875 -1.574219 1.820312 -1.339844 L 1.992188 -1.4375 C 1.828125 -1.734375 1.511719 -1.933594 1.144531 -1.933594 C 0.601562 -1.933594 0.164062 -1.496094 0.164062 -0.953125 C 0.164062 -0.414062 0.601562 0.0273438 1.144531 0.0273438 C 1.683594 0.0273438 2.125 -0.414062 2.125 -0.953125 L 2.125 -1.011719 Z M 1.140625 -1.011719 "/></g></g></g><g fill="#000000" fill-opacity="1"><g transform="translate(104.71246, 25.891413)"><g><path d="M 1.289062 -1.710938 L 1.289062 -1.90625 L 0.246094 -1.90625 L 0.246094 0 L 1.289062 0 L 1.289062 -0.195312 L 0.453125 -0.195312 L 0.453125 -0.855469 L 1.183594 -0.855469 L 1.183594 -1.050781 L 0.453125 -1.050781 L 0.453125 -1.710938 Z M 1.289062 -1.710938 "/></g></g></g><g fill="#000000" fill-opacity="1"><g transform="translate(107.046222, 25.891413)"><g><path d="M 1.601562 -1.90625 L 1.601562 -0.339844 L 0.421875 -1.90625 L 0.230469 -1.90625 L 0.230469 0 L 0.4375 0 L 0.4375 -1.566406 L 1.613281 0 L 1.804688 0 L 1.804688 -1.90625 Z M 1.601562 -1.90625 "/></g></g></g><g fill="#000000" fill-opacity="1"><g transform="translate(109.933219, 25.891413)"><g><path d="M 1.136719 0.0273438 C 1.5 0.0273438 1.820312 -0.175781 1.988281 -0.46875 L 1.8125 -0.570312 C 1.683594 -0.332031 1.425781 -0.179688 1.136719 -0.179688 C 0.707031 -0.179688 0.359375 -0.519531 0.359375 -0.953125 C 0.359375 -1.386719 0.707031 -1.730469 1.136719 -1.730469 C 1.425781 -1.730469 1.683594 -1.574219 1.8125 -1.339844 L 1.988281 -1.4375 C 1.820312 -1.734375 1.5 -1.933594 1.136719 -1.933594 C 0.59375 -1.933594 0.15625 -1.496094 0.15625 -0.953125 C 0.15625 -0.414062 0.59375 0.0273438 1.136719 0.0273438 Z M 1.136719 0.0273438 "/></g></g></g><g fill="#000000" fill-opacity="1"><g transform="translate(112.877445, 25.891413)"><g><path d="M 1.539062 -1.90625 L 1.289062 -1.90625 L 0.773438 -1.117188 L 0.257812 -1.90625 L 0.00390625 -1.90625 L 0.671875 -0.902344 L 0.671875 0 L 0.875 0 L 0.875 -0.90625 Z M 1.539062 -1.90625 "/></g></g></g></svg>